<svg xmlns="http://www.w3.org/2000/svg" viewBox="0 0 500 500"><g id="freepik--Floor--inject-1--inject-14"><path id="freepik--floor--inject-1--inject-14" d="M111.78,411.37c79.19,43.88,207.59,43.88,286.79,0s79.19-115,0-158.91-207.6-43.88-286.8,0S32.58,367.49,111.78,411.37Z" style="fill:#f5f5f5"></path></g><g id="freepik--Plants--inject-1--inject-14"><g id="freepik--plants--inject-1--inject-14"><g id="freepik--plants--inject-1--inject-14"><path d="M83.24,318.3l7-4s3.37-18.61.85-34.61c-3.55-22.49-18.87-30.25-24.43-28s-6.87,8.9,3.18,21.89C75.8,281.22,83.43,297.43,83.24,318.3Z" style="fill:#FFB95F"></path><g style="opacity:0.1"><path d="M83.24,318.3l7-4s3.37-18.61.85-34.61c-3.55-22.49-18.87-30.25-24.43-28s-6.87,8.9,3.18,21.89C75.8,281.22,83.43,297.43,83.24,318.3Z"></path></g><path d="M85.79,309.37h-.07a.5.5,0,0,1-.43-.57c2.91-21.06-5.56-44.13-15.07-53.42a.5.5,0,0,1,0-.71.5.5,0,0,1,.71,0c9.69,9.46,18.32,32.91,15.37,54.28A.51.51,0,0,1,85.79,309.37Z" style="fill:#fff"></path><path d="M63.7,329.59c-1.11.64-3.4-.76-4.28-1.35a10.54,10.54,0,0,1-3.53-4.05,9.94,9.94,0,0,1-.89-6,24.38,24.38,0,0,1,.76-3.17c.29-1,.59-2.06.88-3.09a7.72,7.72,0,0,0,.46-3.11c-.27-2.11-2.15-3.59-3.85-4.86-1.88-1.41-3.84-3.27-3.83-5.81a8.93,8.93,0,0,1,2.24-5.32c1.21-1.54,2.65-2.89,3.75-4.52a6.22,6.22,0,0,0,1.28-3.94,6.45,6.45,0,0,0-.86-2.47,34.89,34.89,0,0,1-2.7-4.94c-.62-1.78-.53-4,.86-5.26a5.84,5.84,0,0,1,4.37-1.09,10.19,10.19,0,0,1,4.06,1.43c4,2.24,6.33,7,10.61,8.74a41.21,41.21,0,0,0,5.18,1.27A6.38,6.38,0,0,1,82.48,285c1.57,3.14-1.34,7-.24,10.34,1,2.94,3.84,4.07,5.45,6.73a6.32,6.32,0,0,1,.75,3.85,18.42,18.42,0,0,1-1.63,6.52,45.17,45.17,0,0,1-3.57,5.87C83.17,318.37,63.87,329.49,63.7,329.59Z" style="fill:#FFB95F"></path><path d="M75.13,323.5h0a.5.5,0,0,1-.49-.52c.83-19.93-8.56-41.94-15.39-48.33a.5.5,0,1,1,.69-.73c7,6.52,16.54,28.89,15.7,49.1A.5.5,0,0,1,75.13,323.5Z" style="fill:#fff"></path><path d="M72.14,300a.36.36,0,0,1-.14,0,67.2,67.2,0,0,0-14.47-2.33.51.51,0,0,1-.48-.52.48.48,0,0,1,.52-.48A68,68,0,0,1,72.29,299a.5.5,0,0,1-.15,1Z" style="fill:#fff"></path></g><g id="freepik--plants--inject-1--inject-14"><path d="M412.49,290.77l-6.41-3.66s-3.07-16.94-.77-31.51c3.23-20.47,17.17-27.53,22.24-25.5s6.25,8.1-2.9,19.93C419.26,257,412.32,271.77,412.49,290.77Z" style="fill:#FFB95F"></path><g style="opacity:0.1"><path d="M412.49,290.77l-6.41-3.66s-3.07-16.94-.77-31.51c3.23-20.47,17.17-27.53,22.24-25.5s6.25,8.1-2.9,19.93C419.26,257,412.32,271.77,412.49,290.77Z"></path></g><path d="M410.17,282.64h.06a.45.45,0,0,0,.39-.51C408,263,415.68,242,424.34,233.48a.45.45,0,1,0-.63-.65c-8.82,8.62-16.68,30-14,49.41A.46.46,0,0,0,410.17,282.64Z" style="fill:#fff"></path><path d="M430.28,301c1,.59,3.1-.69,3.9-1.22a9.69,9.69,0,0,0,3.21-3.69,9.1,9.1,0,0,0,.81-5.44,22.08,22.08,0,0,0-.69-2.89L436.7,285a7.08,7.08,0,0,1-.41-2.83c.24-1.93,1.95-3.27,3.5-4.43,1.71-1.28,3.5-3,3.49-5.29a8.14,8.14,0,0,0-2-4.84c-1.11-1.4-2.42-2.64-3.42-4.11a5.68,5.68,0,0,1-1.16-3.6,5.88,5.88,0,0,1,.78-2.24,31.26,31.26,0,0,0,2.46-4.5c.56-1.62.48-3.63-.78-4.79a5.32,5.32,0,0,0-4-1,9.09,9.09,0,0,0-3.7,1.31c-3.67,2-5.76,6.38-9.66,7.95a39.48,39.48,0,0,1-4.71,1.16,5.8,5.8,0,0,0-3.89,2.66c-1.43,2.85,1.22,6.37.22,9.4-.89,2.69-3.5,3.71-5,6.13a5.69,5.69,0,0,0-.68,3.51,16.66,16.66,0,0,0,1.48,5.93,41.48,41.48,0,0,0,3.25,5.35C412.55,290.83,430.12,301,430.28,301Z" style="fill:#FFB95F"></path><path d="M419.87,295.5h0a.46.46,0,0,0,.45-.48c-.76-18.14,7.79-38.17,14-44a.46.46,0,1,0-.63-.67c-6.34,5.94-15.06,26.3-14.3,44.7A.47.47,0,0,0,419.87,295.5Z" style="fill:#fff"></path><path d="M422.59,274.06a.34.34,0,0,0,.14,0,61.13,61.13,0,0,1,13.16-2.12.46.46,0,0,0,.44-.47.44.44,0,0,0-.48-.44,61.87,61.87,0,0,0-13.39,2.16.46.46,0,0,0-.31.57A.45.45,0,0,0,422.59,274.06Z" style="fill:#fff"></path></g></g></g><g id="freepik--Sofa--inject-1--inject-14"><g id="freepik--sofa--inject-1--inject-14"><path d="M316.87,165.36l68.25,39.41a14.34,14.34,0,0,1,6.5,11.25v55.35a14.37,14.37,0,0,1-6.49,11.25l-7.32,4.23a14.36,14.36,0,0,1-13,0l-68.26-39.41a14.36,14.36,0,0,1-6.49-11.25V180.84a14.36,14.36,0,0,1,6.49-11.25l7.32-4.23A14.36,14.36,0,0,1,316.87,165.36Z" style="fill:#FFB95F"></path><path d="M385.12,212.27l-7.31,4.22a14.36,14.36,0,0,0-6.5,11.25V283.1c0,4.14,2.91,5.82,6.5,3.75l7.32-4.23a14.37,14.37,0,0,0,6.49-11.25V216C391.62,211.87,388.71,210.19,385.12,212.27Z" style="opacity:0.03"></path><path d="M376.78,287.36a14.7,14.7,0,0,1-12-.5l-68.25-39.43a14.34,14.34,0,0,1-6.5-11.25V180.83a13.2,13.2,0,0,1,1.9-6.4l81.25,46.9a13.33,13.33,0,0,0-1.9,6.4v55.38C371.31,286.83,373.68,288.56,376.78,287.36Z" style="opacity:0.2"></path><path d="M391.61,216c0-4.13-2.9-5.83-6.48-3.75l-7.32,4.22a13.44,13.44,0,0,0-4.6,4.85L292,174.43a13.37,13.37,0,0,1,4.6-4.85l7.32-4.22a14.32,14.32,0,0,1,13,0l68.25,39.4A14.38,14.38,0,0,1,391.61,216Z" style="fill:#fff;opacity:0.1"></path><path d="M305.14,195.46,363.23,229a14.36,14.36,0,0,1,6.5,11.25v43.63a14.36,14.36,0,0,1-6.5,11.25L295,334.54a14.36,14.36,0,0,1-13,0L223.9,301a14.34,14.34,0,0,1-6.5-11.25V246.11a14.37,14.37,0,0,1,6.5-11.25l68.25-39.4A14.36,14.36,0,0,1,305.14,195.46Z" style="fill:#FFB95F"></path><path d="M363.23,236.5l-68.35,39.42a14.36,14.36,0,0,1-13,0l-58.1-33.54c-3.58-2.07-3.58-5.43,0-7.5l68.36-39.42a14.36,14.36,0,0,1,13,0L363.23,229C366.82,231.07,366.82,234.43,363.23,236.5Z" style="fill:#fff;opacity:0.2"></path><path d="M288.48,277.47V336.1a13,13,0,0,1-6.48-1.58L223.9,301a14.33,14.33,0,0,1-6.5-11.25V246.12a14.51,14.51,0,0,1,4.7-9.92c-1.77,2-1.2,4.5,1.7,6.17l58.08,33.55A13.2,13.2,0,0,0,288.48,277.47Z" style="opacity:0.2"></path><path d="M213.74,158.64,282,119.24a14.36,14.36,0,0,1,13,0l7.32,4.23a14.34,14.34,0,0,1,6.5,11.25v55.35a14.34,14.34,0,0,1-6.5,11.25l-68.25,39.41a14.36,14.36,0,0,1-13,0l-7.32-4.23a14.37,14.37,0,0,1-6.49-11.25V169.89A14.36,14.36,0,0,1,213.74,158.64Z" style="fill:#FFB95F"></path><path d="M306.91,128.33l-81.25,46.92a13.11,13.11,0,0,0-4.6-4.87l-7.33-4.23c-3.57-2.07-6.47-.4-6.47,3.75a14.38,14.38,0,0,1,6.47-11.25L282,119.25a14.38,14.38,0,0,1,13,0l7.33,4.23A13.06,13.06,0,0,1,306.91,128.33Z" style="fill:#fff;opacity:0.2"></path><path d="M213.74,166.14l7.32,4.23a14.36,14.36,0,0,1,6.5,11.25V237c0,4.14-2.91,5.82-6.5,3.75l-7.32-4.23a14.37,14.37,0,0,1-6.49-11.25V169.89C207.25,165.75,210.15,164.07,213.74,166.14Z" style="opacity:0.2"></path><path d="M221.51,243.77l58.09,33.55a14.34,14.34,0,0,1,6.5,11.25V332.2a14.36,14.36,0,0,1-6.5,11.25l-68.25,39.4a14.36,14.36,0,0,1-13,0l-58.09-33.54a14.36,14.36,0,0,1-6.5-11.25V294.43a14.36,14.36,0,0,1,6.5-11.25l68.25-39.41A14.36,14.36,0,0,1,221.51,243.77Z" style="fill:#FFB95F"></path><path d="M279.6,284.82l-68.35,39.42a14.36,14.36,0,0,1-13,0l-58.1-33.55c-3.58-2.07-3.58-5.42,0-7.5l68.36-39.42a14.36,14.36,0,0,1,13,0l58.09,33.55C283.19,279.39,283.19,282.74,279.6,284.82Z" style="fill:#fff;opacity:0.2"></path><path d="M204.85,325.79v58.62a13,13,0,0,1-6.48-1.57l-58.1-33.53a14.31,14.31,0,0,1-6.5-11.25V294.44a14.52,14.52,0,0,1,4.7-9.93c-1.77,2-1.2,4.5,1.7,6.18l58.08,33.55A13.3,13.3,0,0,0,204.85,325.79Z" style="opacity:0.2"></path><path d="M130.11,207l68.25-39.41a14.36,14.36,0,0,1,13,0l7.32,4.23a14.36,14.36,0,0,1,6.5,11.25v55.36a14.36,14.36,0,0,1-6.5,11.25L150.42,289a14.36,14.36,0,0,1-13,0l-7.32-4.22a14.39,14.39,0,0,1-6.49-11.25V218.21A14.35,14.35,0,0,1,130.11,207Z" style="fill:#FFB95F"></path><path d="M130.11,214.46l7.32,4.22a14.37,14.37,0,0,1,6.5,11.25v55.36c0,4.14-2.91,5.82-6.5,3.75l-7.32-4.22a14.39,14.39,0,0,1-6.49-11.25V218.21C123.62,214.07,126.52,212.39,130.11,214.46Z" style="opacity:0.2"></path><path d="M223.26,176.63,142,223.53a13.53,13.53,0,0,0-4.6-4.85l-7.32-4.23c-3.58-2.07-6.5-.37-6.5,3.75a14.43,14.43,0,0,1,6.5-11.25l68.25-39.4a14.38,14.38,0,0,1,13,0l7.32,4.23A13.41,13.41,0,0,1,223.26,176.63Z" style="fill:#fff;opacity:0.2"></path><path d="M128.6,274l68.25,39.41a14.35,14.35,0,0,1,6.49,11.25V380a14.33,14.33,0,0,1-6.49,11.25l-7.32,4.23a14.36,14.36,0,0,1-13,0L108.29,356a14.37,14.37,0,0,1-6.5-11.25V289.43a14.36,14.36,0,0,1,6.5-11.25l7.32-4.23A14.36,14.36,0,0,1,128.6,274Z" style="fill:#FFB95F"></path><path d="M196.85,320.86l-7.32,4.22a14.36,14.36,0,0,0-6.5,11.25v55.36c0,4.14,2.91,5.82,6.5,3.75l7.32-4.23A14.33,14.33,0,0,0,203.34,380V324.61C203.34,320.47,200.44,318.79,196.85,320.86Z" style="opacity:0.03"></path><path d="M188.51,396a14.65,14.65,0,0,1-12-.5L108.28,356a14.36,14.36,0,0,1-6.5-11.25V289.43a13.25,13.25,0,0,1,1.9-6.4l81.25,46.9a13.44,13.44,0,0,0-1.9,6.4V391.7C183,395.43,185.41,397.15,188.51,396Z" style="opacity:0.2"></path><path d="M203.33,324.6c0-4.12-2.9-5.82-6.47-3.75l-7.33,4.23a13.45,13.45,0,0,0-4.6,4.85L103.68,283a13.54,13.54,0,0,1,4.6-4.85l7.33-4.23a14.38,14.38,0,0,1,13,0l68.25,39.4A14.42,14.42,0,0,1,203.33,324.6Z" style="fill:#fff;opacity:0.1"></path></g></g><g id="freepik--Character--inject-1--inject-14"><g id="freepik--character--inject-1--inject-14"><path d="M200.73,200c7.79-.26,12,2.69,13.32,8.64s-2.82,30-2.82,30c12.21,7.48,20.54,12.39,26.32,15.06,4.55,2.09,18,13.23,18.15,15.94s-5.26-1.89-8.63-4.13-7.41-2-14.12-3.8-30.58-7.89-33.92-11.08S200.73,200,200.73,200Z" style="fill:#ffa8a7"></path><path d="M249.62,342.53c-.91,1-1.94,2.06-1.83,3.25a12.17,12.17,0,0,0,3.23,6.78c2.51,2.71,4.15,7.88,4.62,11.39s.78,12.46,5.23,16,15.24,5.29,15.24-1.24-12.88-31.62-12.88-31.62Z" style="fill:#263238"></path><path d="M255.6,346.73a96.35,96.35,0,0,1,4.35,14c1.1,5.24,2.65,8.92,5.32,10.34s6.66,1.15,5.16-2.41-7.2-21.61-7.2-21.61Z" style="fill:#f28f8f"></path><path d="M221.1,257.58s21.22,9.71,31.54,15.25,20.13,11,22.18,15.43c2.16,4.72,1.61,16,.48,26.77s-3.5,30.24-3.5,30.24L241.59,300l-30.36-20.05Z" style="fill:#455a64"></path><path d="M220.14,278.24l1-2.25s17.54,10.13,23.63,13.9,12.59,8.39,15.58,15.32,12.23,34.39,12.23,34.39l-21.3-38.15Z" style="fill:#37474f"></path><path d="M274.38,379.18c-.87.57-.75,2.74-.67,4.32s-1,3.66,1.25,6.1,6.17,2.66,9.31,6,8,9.5,16.58,9.94,14.55-3.32,15.71-6.06-.61-4.86-6.43-7.06c-6.18-2.34-7.94-3-7.94-3Z" style="fill:#263238"></path><path d="M280.63,360.59s5.81,10.51,9.08,15.24,7.9,9,12.92,12.81c1.09.84,3.49,2.31,4.38,3a1.63,1.63,0,0,1,.34,2.49c-1.44,2.09-9,4.08-13.93,1.76s-10.4-7.55-13.48-9.6c-1.55-1-3-2-4.07-2.75a3.52,3.52,0,0,1-1.54-3.11c0-.35,0-.76.05-1.24.08-2.59-5.27-12-5.27-12Z" style="fill:#ffa8a7"></path><path d="M174.15,269.56c.09,8.63.52,13.44,5,21.31s15.56,12.85,28.59,17.23c10.78,3.62,26.64,8.79,29.78,9.47s3.8,2.36,4.52,7.93,4.48,14.16,12.9,24.14a269,269,0,0,1,17.1,23.18s8.8,0,12.17-5.86c0,0-24.49-57.77-28.41-64.44s-35.7-24.28-35.7-24.28.54-11.95,1-20.66Z" style="fill:#455a64"></path><path d="M224.64,269.67a67.06,67.06,0,0,1-4.5,8.57l2,1.09A24.08,24.08,0,0,0,224.64,269.67Z" style="fill:#37474f"></path><path d="M179.5,203.44l-7.64,3.84s5.27,5.3,3.82,18.32c-1,9.22-3.08,10-7.76,12.61,6.23,14.16,6.31,35,6.31,35s11,5.91,31,.22c17.59-5,15.84-15.85,15.84-15.85l-7.56-5.83L211.83,238s6-6,3.38-16.64S200.73,200,200.73,200h-4.64Z" style="fill:#fafafa"></path><path d="M218.26,265.9c-8.93,3.34-22.5,3.87-28,0s-10.07-14.54-9.18-21.45-.87-18.72-3.58-25.72l-1.77-.5a35.86,35.86,0,0,1-.09,7.36c-1,9.22-3.08,10-7.76,12.61,5.85,13.81,6.31,35,6.31,35s11,5.91,31,.22c5.68-1.61,10.27-4.11,13-7.53Z" style="fill:#f0f0f0"></path><path d="M193.47,192.47l-8.59.23a21.66,21.66,0,0,1-22.24-21.06h0A26,26,0,0,1,187.88,145h0a26,26,0,0,1,26.65,25.24h0A21.66,21.66,0,0,1,193.47,192.47Z" style="fill:#263238"></path><path d="M181,139c3.83,5.37,0,9.19-5.39,13s-10.23,6.22-14.06.85-1.93-11.5,3.44-15.33S177.19,133.67,181,139Z" style="fill:#263238"></path><path d="M168.05,156.22l-5.4,4.19a3.31,3.31,0,0,1,.48-4.77A3.58,3.58,0,0,1,168.05,156.22Z" style="fill:#263238"></path><path d="M204.19,156.17c2.78,1.55,6.36,8.35,6.42,22.81,0,12.25-3.84,15.39-5.81,16.31s-5.83.5-9.58,0l.06,5.08s6.74,7.37,6.51,10.75-8.62,5.13-13.55,2-9.18-9.39-9.18-9.39l-.36-17s-2.14,2.19-6-1c-3.15-2.61-4.31-7.12-2-9.63a5.37,5.37,0,0,1,8.58,1.47s6,.06,13.78-4.52A22.32,22.32,0,0,0,204.19,156.17Z" style="fill:#ffa8a7"></path><path d="M196.85,176.27a1.54,1.54,0,1,1-1.66-1.48A1.57,1.57,0,0,1,196.85,176.27Z" style="fill:#263238"></path><path d="M197.54,186.64l3.61,1.05a1.84,1.84,0,0,1-2.29,1.34A2,2,0,0,1,197.54,186.64Z" style="fill:#f28f8f"></path><path d="M209.35,171.2l-3.18-2.08a1.83,1.83,0,0,1,2.58-.6A2,2,0,0,1,209.35,171.2Z" style="fill:#263238"></path><path d="M208.73,174.83a1.55,1.55,0,1,1-1.66-1.48A1.58,1.58,0,0,1,208.73,174.83Z" style="fill:#263238"></path><polygon points="201.75 173.38 201.94 183.41 206.77 181.77 201.75 173.38" style="fill:#f28f8f"></polygon><path d="M195.22,195.27c-4-.41-12.12-2.52-13.47-5.68a8.26,8.26,0,0,0,2.95,4c2.48,2,10.58,4.12,10.58,4.12Z" style="fill:#f28f8f"></path><path d="M191.81,289v1.06a3,3,0,0,0,1.5,2.6l28.62,16.47a3,3,0,0,0,3,0l52.5-30.31a3,3,0,0,0,1.5-2.6v-.73l-55.5,32Z" style="fill:#ebebeb"></path><path d="M278.94,275.48l-31.13-18a1.79,1.79,0,0,0-1.79,0l-54,31.19a.4.4,0,0,0,0,.69l31.43,18.15Z" style="fill:#fafafa"></path><path d="M233,261.74c2.56,1,2.46,1.74,4.55,2.92,3.87,2.2,6.38,1.77,6.38,1.77a35,35,0,0,0,3.66,3c2.73,1.88,5.48,3.32,8.85,2.26,3.69-1.17,1.09-4.82,0-6.62s-7-7.07-8.2-8.15-6.21-1.82-10.64-3.2Z" style="fill:#ffa8a7"></path><polygon points="223.15 304.88 206.36 295.2 255.46 266.85 272.34 276.48 223.15 304.88" style="fill:#e0e0e0"></polygon><polygon points="214.9 277.94 215.21 278.12 223.44 282.87 238.07 274.42 238.38 274.25 229.84 269.32 214.9 277.94" style="fill:#e0e0e0"></polygon><polygon points="215.21 278.12 223.44 282.87 238.07 274.42 229.84 269.67 215.21 278.12" style="fill:#e6e6e6"></polygon><path d="M223.44,307.52v2a3,3,0,0,0,1.5-.4l52.5-30.31a3,3,0,0,0,1.5-2.6v-.73Z" style="fill:#ebebeb"></path><g style="opacity:0.5;mix-blend-mode:multiply"><path d="M223.44,307.52v2a3,3,0,0,0,1.5-.4l52.5-30.31a3,3,0,0,0,1.5-2.6v-.73Z" style="fill:#e0e0e0"></path></g><path d="M224.28,308a3.57,3.57,0,0,0,3.07-.24l52.27-30.18a3.56,3.56,0,0,0,1.73-2.49l5.73-34.12a3.9,3.9,0,0,0,0-.59,3.58,3.58,0,0,0-1.05-2.53l-54.32,31.37a2.65,2.65,0,0,0-1.28,1.84Z" style="fill:#ebebeb"></path><path d="M223.44,307.53l.36.2a4.3,4.3,0,0,0,.48.24L230.47,271a2.65,2.65,0,0,1,1.28-1.84l54.32-31.37a3.92,3.92,0,0,0-.72-.55L230.91,268.7a2.66,2.66,0,0,0-1.28,1.84Z" style="fill:#fafafa"></path><path d="M253.73,276.46c.38-2.28,2.74-5.32,5.26-6.78s4.27-.79,3.89,1.5-2.75,5.32-5.27,6.78S253.34,278.75,253.73,276.46Z" style="fill:#FFB95F"></path><path d="M196.4,283.59c-6.67-1.94-30.55-8.62-37.8-11-5-1.64-7.77-2.79-7.91-7.16-.12-4.06,5.89-37.32,8.08-45.51,1.91-7.19,6.17-9.65,13.09-12.67,4.78,3.78,6.14,23.05.43,28.11-2.13,8.44-6,23.1-6,23.1s13.58,7.06,23.28,11.73c4.84,2.33,11.4,5.67,15.26,6.09,3.06.33,8.49.54,9.66,1.61a91.44,91.44,0,0,1,7.87,9.14c1.09,1.79,3.7,5.45,0,6.62-3.37,1.06-6.11-.38-8.85-2.26a35.67,35.67,0,0,1-3.66-3,13.41,13.41,0,0,1-7.91-1.57C199.89,285.65,196.4,283.59,196.4,283.59Z" style="fill:#ffa8a7"></path></g></g></svg>